# xmcd
#
# Track frame offsets:
#	150
#	29310
#	48440
#	69282
#	87190
#	105365
#	125175
#	143025
#	169072
#	189275
#	212027
#	236170
#
# Disc length: 3498 seconds
#
# Revision: 0
# Processed by: cddbd v1.5.2PL0 Copyright (c) Steve Scherf et al.
# Submitted via: EasyCDDAExtractor 16.0.6.1
#
DISCID=a10da80c
DTITLE=Συλλογικός δίσκος - Κρήτη μου όμορφο νησί 2
DYEAR=1900
DGENRE=Κρητική
TTITLE0=Καραβηράκης Μανώλης - Τραγούδι του γάμου [παραδοσιακό]
TTITLE1=Καραβηράκης Μανώλης-Καραβηράκης Νίκος - Πουλί μου μαδαρίτικο [παραδοσι
TTITLE1=ακό]
TTITLE2=Καραβηράκης Μανώλης - Μελωδίες ανατολικής Κρήτης [παραδοσιακό]
TTITLE3=Άνευ ερμηνευτού - Κρητικός-στηακός πηδηχτός [παραδοσιακό]
TTITLE4=Καραβηράκης Νίκος - Μαύρα μάτια [παραδοσιακό]
TTITLE5=Καραβηράκης Μανώλης - Πρώτος συρτός χανιώτικος [παραδοσιακό]
TTITLE6=Καραβηράκης Νίκος - Στη Γραμπούσα στ' ακρωτήρι [παραδοσιακό]
TTITLE7=Καραβηράκης Νίκος - Μεσσαρίτικα πεντοζάλια [παραδοσιακό]
TTITLE8=Καραβηράκης Μανώλης - Αφού τ' ανθρώπου η ζωή [παραδοσιακό]
TTITLE9=Καραβηράκης Μανώλης - Σούστα [παραδοσιακό]
TTITLE10=Καραβηράκης Νίκος - Ταμπαχανιώτικα [παραδοσιακό]
TTITLE11=Καραβηράκης Νίκος - Ερωτόκριτος [στ. Βιντσέντζος Κορνάρος]
EXTD=
EXTT0=
EXTT1=
EXTT2=
EXTT3=
EXTT4=
EXTT5=
EXTT6=
EXTT7=
EXTT8=
EXTT9=
EXTT10=
EXTT11=
PLAYORDER=
